<svg xmlns="http://www.w3.org/2000/svg" viewBox="0 0 560 100" width="560" height="100"><defs><clipPath id="cp0"><rect x="29" y="34" width="16" height="16"/></clipPath><clipPath id="ct2"><rect x="53" y="32.5" width="66.8" height="17"/></clipPath><clipPath id="ct3"><rect x="129" y="33.9" width="41.1" height="18"/></clipPath><clipPath id="cp4"><rect x="175" y="37" width="11.3" height="11.5"/></clipPath><clipPath id="ct6"><rect x="191.7" y="32.5" width="50.7" height="17"/></clipPath><clipPath id="cp7"><rect x="512" y="35" width="14" height="14"/></clipPath></defs><rect x="20" y="20" width="520" height="44" rx="22" fill="rgb(28,28,30)"/><rect x="20.5" y="20.5" width="519" height="43" rx="21.5" fill="none" stroke="rgb(72,72,74)" stroke-width="1"/><g clip-path="url(#cp0)"><g color="rgb(174, 174, 178)"><clipPath id="svgic1"><rect x="29" y="34" width="16" height="16"/></clipPath><g clip-path="url(#svgic1)"><g transform="translate(29 34)scale(.66667)"><path d="m21 21-4.3-4.3" style="marker:none;vector-effect:none;color-interpolation:srgb" fill="none" stroke="rgb(174, 174, 178)" stroke-width="2px" stroke-dasharray="none" stroke-linecap="round" stroke-linejoin="round" stroke-opacity="1" fill-opacity="1" opacity="1"/><circle cx="11" cy="11" r="8" style="marker:none;vector-effect:none;color-interpolation:srgb" fill="none" stroke="rgb(174, 174, 178)" stroke-width="2px" stroke-dasharray="none" stroke-linecap="round" stroke-linejoin="round" stroke-opacity="1" fill-opacity="1" opacity="1"/></g></g></g></g><text x="53" y="46.55" font-family="system-ui, &quot;-apple-system&quot;, sans-serif" font-size="14" fill="rgb(245,245,247)">payments </text><rect x="121.8" y="33.9" width="67.9" height="18" rx="9" fill="rgb(40,57,66)"/><text x="129" y="46.86" font-family="system-ui, &quot;-apple-system&quot;, sans-serif" font-size="12" fill="rgb(138,203,255)">is:open</text><g clip-path="url(#cp4)"><g color="rgb(138, 203, 255)"><clipPath id="svgic5"><rect x="175.1" y="37.3" width="11.2" height="11.2"/></clipPath><g clip-path="url(#svgic5)"><g transform="translate(175.094 37.266)scale(.46615)"><path d="M18 6 6 18" style="marker:none;vector-effect:none;color-interpolation:srgb" fill="none" stroke="rgb(138, 203, 255)" stroke-width="2px" stroke-dasharray="none" stroke-linecap="round" stroke-linejoin="round" stroke-opacity="1" fill-opacity="1" opacity="1"/><path d="m6 6 12 12" style="marker:none;vector-effect:none;color-interpolation:srgb" fill="none" stroke="rgb(138, 203, 255)" stroke-width="2px" stroke-dasharray="none" stroke-linecap="round" stroke-linejoin="round" stroke-opacity="1" fill-opacity="1" opacity="1"/></g></g></g></g><text x="191.69" y="46.55" font-family="system-ui, &quot;-apple-system&quot;, sans-serif" font-size="14" fill="rgb(245,245,247)">is:open </text><g clip-path="url(#cp7)"><g color="rgb(174, 174, 178)"><clipPath id="svgic8"><rect x="512.2" y="35.2" width="13.6" height="13.6"/></clipPath><g clip-path="url(#svgic8)"><g transform="translate(512.203 35.203)scale(.5664)"><path d="M18 6 6 18" style="marker:none;vector-effect:none;color-interpolation:srgb" fill="none" stroke="rgb(174, 174, 178)" stroke-width="2px" stroke-dasharray="none" stroke-linecap="round" stroke-linejoin="round" stroke-opacity="1" fill-opacity="1" opacity="1"/><path d="m6 6 12 12" style="marker:none;vector-effect:none;color-interpolation:srgb" fill="none" stroke="rgb(174, 174, 178)" stroke-width="2px" stroke-dasharray="none" stroke-linecap="round" stroke-linejoin="round" stroke-opacity="1" fill-opacity="1" opacity="1"/></g></g></g></g></svg>