<?xml version="1.0" encoding="UTF-8"?>
<svg width="88px" height="90px" viewBox="0 0 88 90" version="1.1" xmlns="http://www.w3.org/2000/svg" xmlns:xlink="http://www.w3.org/1999/xlink">
    <title>favicon</title>
    <defs>
        <linearGradient x1="50%" y1="0%" x2="50%" y2="100%" id="linearGradient-1">
            <stop stop-color="#EF4370" offset="0%"></stop>
            <stop stop-color="#B22B2B" offset="100%"></stop>
        </linearGradient>
        <linearGradient x1="50%" y1="0%" x2="50%" y2="100%" id="linearGradient-2">
            <stop stop-color="#FFFFFF" offset="0%"></stop>
            <stop stop-color="#F7FFB1" offset="100%"></stop>
        </linearGradient>
        <linearGradient x1="50%" y1="0%" x2="50%" y2="100%" id="linearGradient-3">
            <stop stop-color="#FFFFFF" offset="0%"></stop>
            <stop stop-color="#F7FFB1" offset="100%"></stop>
        </linearGradient>
        <linearGradient x1="50%" y1="0%" x2="50%" y2="100%" id="linearGradient-4">
            <stop stop-color="#FFFFFF" offset="0%"></stop>
            <stop stop-color="#F7FFB1" offset="100%"></stop>
        </linearGradient>
        <linearGradient x1="50%" y1="0%" x2="50%" y2="100%" id="linearGradient-5">
            <stop stop-color="#FFFFFF" offset="0%"></stop>
            <stop stop-color="#F7FFB1" offset="100%"></stop>
        </linearGradient>
    </defs>
    <g id="favicon" stroke="none" fill="none" fill-rule="evenodd">
        <path d="M66.7327828,2.30926389e-14 L70.277285,3.54450009 L74.0779876,7.34520042 L77.2953263,10.5625373 L79.734842,13.0020514 L83.5355362,16.8027583 L87.0710661,20.3382946 L83.5355306,23.8738253 L83.5101759,23.8991798 L82.9775718,24.4317785 L82.9559722,24.4533777 C79.3117153,28.0975807 77.6832821,29.7268993 75.6572022,31.7574658 C73.6567717,33.7623169 72.0968926,35.3294388 70.5895963,36.8500933 C69.6262902,37.8219295 68.7620244,38.696665 67.9374187,39.5348968 C67.1177197,40.3681307 66.371095,41.130927 65.6584837,41.8637698 C64.9641292,42.5778496 64.3345682,43.2301282 63.7354499,43.8569312 C63.4967289,44.1066829 63.2679265,44.3470793 63.0473578,44.5800398 C63.2679339,44.8130082 63.4967339,45.0534022 63.7354529,45.3031517 C64.3345682,45.9299516 64.9641292,46.5822302 65.6584542,47.2962796 C66.371095,48.0291528 67.1177197,48.7919491 67.9374401,49.6252047 C68.7620244,50.4634148 69.6262902,51.3381503 70.5896092,52.3099995 C72.0968926,53.830641 73.6567717,55.3977629 75.6572104,57.4026222 C77.6832821,59.4331805 79.3117153,61.0624991 82.9559722,64.7067021 L82.9775718,64.7283013 L83.5355307,65.2862545 L87.0710661,68.8217852 L83.5355362,72.3573215 L79.7348395,76.1580249 L76.8874327,79.0054367 L74.0779914,81.8148832 L70.2772829,85.6155748 L66.7417561,89.1510952 L63.2062254,85.6155787 L62.6266704,85.0360203 L62.5903215,84.999671 C58.9690985,81.3784086 57.3435785,79.7537784 55.3225754,77.7372408 C53.3177243,75.7368102 51.7506024,74.1769312 50.2299479,72.6696349 C49.2581118,71.7063288 48.3833762,70.842063 47.5451444,70.0174573 C46.7119105,69.1977583 45.9491142,68.4511335 45.2162714,67.7385223 C44.5021916,67.0441678 43.849913,66.4146068 43.22311,65.8154885 C42.9733584,65.5767674 42.732962,65.3479651 42.5,65.1273963 C42.267033,65.3479724 42.026639,65.5767725 41.7768895,65.8154915 C41.1500896,66.4146068 40.4978111,67.0441678 39.7837616,67.7384928 C39.0508885,68.4511335 38.2880921,69.1977583 37.4548365,70.0174786 C36.6166264,70.842063 35.7418909,71.7063288 34.7700417,72.6696478 C33.2494003,74.1769312 31.6822783,75.7368102 29.6774191,77.7372489 C27.6564242,79.7537784 26.0309041,81.3784086 22.4096812,84.999671 L22.3733323,85.0360203 L21.7937772,85.6155787 L20.3293124,87.0800377 L18.3750014,87.0800377 L4.08562073e-14,87.0800421 L4.08562073e-14,2.0800421 L10.3749976,2.08004211 L28.7338568,2.08003505 L28.7499763,7.0638634 L28.8491583,37.7290857 C40.3608511,26.4000381 51.8054873,15.0031214 63.1972727,3.5534694 L66.7327828,2.30926389e-14 Z" id="Combined-Shape" fill="url(#linearGradient-1)"></path>
        <path d="M79.9999991,20.338289 L74.0779888,14.4162681 C49.8362344,38.6580295 46.8752292,41.6190347 46.8752292,44.5800399 C46.8752292,47.5410451 49.8362344,50.5020502 74.0779888,74.7438117 L79.9999991,68.8217908 C77.3716987,66.1934939 74.7431584,63.5654474 72.1177683,60.9342436 C70.4223712,59.2350999 68.7282898,57.5346545 67.0385124,55.8299017 C66.1484963,54.9320045 65.2596727,54.0329186 64.3730539,53.1316489 C63.6045592,52.3504648 62.8377261,51.5676156 62.0737858,50.7819865 C61.4202155,50.1098495 60.768776,49.4356735 60.1209984,48.7579627 C59.5762636,48.1880572 59.0341253,47.6156576 58.4966154,47.0389364 C58.0734266,46.5848479 57.6530919,46.1280818 57.2377878,45.6667613 C56.9147562,45.3079687 56.5947797,44.9463996 56.2803735,44.5800399 C56.5947797,44.2136802 56.9147562,43.8521111 57.2377878,43.4933185 C57.6530919,43.031998 58.0734266,42.5752319 58.4966154,42.1211434 C59.0341253,41.5444222 59.5762636,40.9720226 60.1209984,40.4021171 C60.768776,39.7244063 61.4202155,39.0502303 62.0737858,38.3780933 C62.8377261,37.5924642 63.6045592,36.809615 64.3730539,36.0284309 C65.2596727,35.1271612 66.1484963,34.2280752 67.0385124,33.3301781 C68.7282898,31.6254253 70.4223712,29.9249799 72.1177683,28.2258362 C74.7431584,25.5946324 77.3716987,22.9665859 79.9999991,20.338289 Z" id="Path" fill="url(#linearGradient-2)"></path>
        <polygon id="Path" fill="url(#linearGradient-3)" points="5 82.0800377 13.3750014 82.0800377 13.3750014 7.0800421 5 7.0800421"></polygon>
        <path d="M66.7417522,82.0800377 C64.1134553,79.4517514 61.4854088,76.8231969 58.854205,74.1978069 C57.1550614,72.5024097 55.4546159,70.8083284 53.7498631,69.118551 C52.851966,68.2285349 51.95288,67.3397113 51.0516103,66.4530925 C50.2704262,65.6845978 49.487577,64.9177647 48.7019479,64.1538243 C48.029811,63.5002541 47.3556349,62.8488146 46.6779241,62.2010369 C46.1080186,61.6563022 45.535619,61.1141638 44.9588979,60.5766539 C44.5048093,60.1534652 44.0480432,59.7331305 43.5867227,59.3178263 C43.2279301,58.9947948 42.8663611,58.6748182 42.5000013,58.3604121 C42.1336416,58.6748182 41.7720726,58.9947948 41.4132799,59.3178263 C40.9519594,59.7331305 40.4951933,60.1534652 40.0411048,60.5766539 C39.4643836,61.1141638 38.891984,61.6563022 38.3220785,62.2010369 C37.6443677,62.8488146 36.9701917,63.5002541 36.2980547,64.1538243 C35.5124256,64.9177647 34.7295764,65.6845978 33.9483923,66.4530925 C33.0471226,67.3397113 32.1480367,68.2285349 31.2501396,69.118551 C29.5453867,70.8083284 27.8449413,72.5024097 26.1457976,74.1978069 C23.5145938,76.8231969 20.8865474,79.4517514 18.2582505,82.0800377 L15.3749975,82.0800377 L15.3749975,73.1195028 C36.8350954,51.6647494 39.6675413,48.9552678 42.5000013,48.9552678 C45.4610065,48.9552678 48.4220117,51.9162729 72.6637731,76.1580273 L66.7417522,82.0800377 Z" id="Path" fill="url(#linearGradient-4)"></path>
        <path d="M66.7417522,7.08003505 L72.6637731,13.0020525 C23.7500024,61.9158232 19.5625017,66.1033309 17.4687479,65.236069 C15.3749975,64.3688107 15.3749975,58.4467827 15.3749975,7.08003505 L23.7500024,7.08003505 C23.7155178,21.2730435 23.7614232,35.4661265 23.8877163,49.6586079 C38.2539953,35.5481154 52.5389107,21.3550225 66.7417522,7.08003505" id="Path" fill="url(#linearGradient-5)"></path>
    </g>
</svg>