<?xml version="1.0" encoding="UTF-8"?>
<svg width="100px" height="100px" viewBox="0 0 100 100" version="1.1" xmlns="http://www.w3.org/2000/svg" xmlns:xlink="http://www.w3.org/1999/xlink">
    <title>logo</title>
    <defs>
        <linearGradient x1="50%" y1="0%" x2="50%" y2="100%" id="linearGradient-1">
            <stop stop-color="#EF4370" offset="0%"></stop>
            <stop stop-color="#B22B2B" offset="100%"></stop>
        </linearGradient>
        <linearGradient x1="50%" y1="0%" x2="50%" y2="100%" id="linearGradient-2">
            <stop stop-color="#FFFFFF" offset="0%"></stop>
            <stop stop-color="#F7FFB1" offset="100%"></stop>
        </linearGradient>
        <linearGradient x1="50%" y1="0%" x2="50%" y2="100%" id="linearGradient-3">
            <stop stop-color="#FFFFFF" offset="0%"></stop>
            <stop stop-color="#F7FFB1" offset="100%"></stop>
        </linearGradient>
        <linearGradient x1="50%" y1="0%" x2="50%" y2="100%" id="linearGradient-4">
            <stop stop-color="#FFFFFF" offset="0%"></stop>
            <stop stop-color="#F7FFB1" offset="100%"></stop>
        </linearGradient>
        <linearGradient x1="50%" y1="0%" x2="50%" y2="100%" id="linearGradient-5">
            <stop stop-color="#FFFFFF" offset="0%"></stop>
            <stop stop-color="#F7FFB1" offset="100%"></stop>
        </linearGradient>
    </defs>
    <g id="logo" stroke="none" fill="none" fill-rule="evenodd">
        <path d="M35.2,100 L64.8,100 C77.1211551,100 83.2817327,100 87.987791,97.6021435 C92.127357,95.4929293 95.4929293,92.127357 97.6021435,87.987791 C100,83.2817327 100,77.1211551 100,64.8 L100,35.2 C100,22.8788449 100,16.7182673 97.6021435,12.012209 C95.4929293,7.87264296 92.127357,4.50707072 87.987791,2.39785647 C83.2817327,-2.84217094e-14 77.1211551,-2.84217094e-14 64.8,-2.84217094e-14 L35.2,-2.84217094e-14 C22.8788449,-2.84217094e-14 16.7182673,-2.84217094e-14 12.012209,2.39785647 C7.87264296,4.50707072 4.50707072,7.87264296 2.39785647,12.012209 C0,16.7182673 0,22.8788449 0,35.2 L0,64.8 C0,77.1211551 0,83.2817327 2.39785647,87.987791 C4.50707072,92.127357 7.87264296,95.4929293 12.012209,97.6021435 C16.7182673,100 22.8788449,100 35.2,100 Z" id="Path" fill="url(#linearGradient-1)"></path>
        <path d="M87.4999996,25.7582474 L81.5779892,19.8362264 C57.3362348,44.0779879 54.3752296,47.0389931 54.3752296,49.9999982 C54.3752296,52.9610034 57.3362348,55.9220086 81.5779892,80.16377 L87.4999996,74.2417491 C84.8716991,71.6134522 82.2431588,68.9854058 79.6177688,66.354202 C77.9223716,64.6550583 76.2282903,62.9546128 74.5385128,61.24986 C73.6484968,60.3519629 72.7596731,59.4528769 71.8730543,58.5516072 C71.1045596,57.7704231 70.3377265,56.9875739 69.5737862,56.2019448 C68.9202159,55.5298079 68.2687765,54.8556319 67.6209988,54.177921 C67.076264,53.6080155 66.5341257,53.0356159 65.9966158,52.4588948 C65.5734271,52.0048062 65.1530923,51.5480401 64.7377882,51.0867197 C64.4147566,50.727927 64.0947801,50.366358 63.7803739,49.9999982 C64.0947801,49.6336385 64.4147566,49.2720695 64.7377882,48.9132768 C65.1530923,48.4519563 65.5734271,47.9951902 65.9966158,47.5411017 C66.5341257,46.9643806 67.076264,46.3919809 67.6209988,45.8220755 C68.2687765,45.1443646 68.9202159,44.4701886 69.5737862,43.7980516 C70.3377265,43.0124225 71.1045596,42.2295733 71.8730543,41.4483892 C72.7596731,40.5471196 73.6484968,39.6480336 74.5385128,38.7501365 C76.2282903,37.0453836 77.9223716,35.3449382 79.6177688,33.6457945 C82.2431588,31.0145907 84.8716991,28.3865443 87.4999996,25.7582474 Z" id="Path" fill="url(#linearGradient-2)"></path>
        <polygon id="Path" fill="url(#linearGradient-3)" points="12.5000004 87.499996 20.8750018 87.499996 20.8750018 12.5000004 12.5000004 12.5000004"></polygon>
        <path d="M74.2417526,87.499996 C71.6134557,84.8717097 68.9854093,82.2431553 66.3542055,79.6177653 C64.6550618,77.9223681 62.9546164,76.2282867 61.2498635,74.5385093 C60.3519664,73.6484933 59.4528804,72.7596696 58.5516108,71.8730508 C57.7704267,71.1045561 56.9875775,70.337723 56.2019484,69.5737827 C55.5298114,68.9202124 54.8556354,68.2687729 54.1779245,67.6209953 C53.6080191,67.0762605 53.0356194,66.5341222 52.4588983,65.9966123 C52.0048098,65.5734236 51.5480437,65.1530888 51.0867232,64.7377847 C50.7279305,64.4147531 50.3663615,64.0947766 50.0000018,63.7803704 C49.633642,64.0947766 49.272073,64.4147531 48.9132803,64.7377847 C48.4519599,65.1530888 47.9951938,65.5734236 47.5411052,65.9966123 C46.9643841,66.5341222 46.3919845,67.0762605 45.822079,67.6209953 C45.1443681,68.2687729 44.4701921,68.9202124 43.7980552,69.5737827 C43.0124261,70.337723 42.2295769,71.1045561 41.4483928,71.8730508 C40.5471231,72.7596696 39.6480371,73.6484933 38.75014,74.5385093 C37.0453872,76.2282867 35.3449417,77.9223681 33.645798,79.6177653 C31.0145942,82.2431553 28.3865478,84.8717097 25.7582509,87.499996 L22.8749979,87.499996 L22.8749979,78.5394611 C44.3350959,57.0847078 47.1675418,54.3752261 50.0000018,54.3752261 C52.9610069,54.3752261 55.9220121,57.3362313 80.1637736,81.5779857 L74.2417526,87.499996 Z" id="Path" fill="url(#linearGradient-4)"></path>
        <path d="M74.2417526,12.4999934 L80.1637736,18.4220108 C31.2500029,67.3357815 27.0625022,71.5232892 24.9687483,70.6560274 C22.8749979,69.788769 22.8749979,63.866741 22.8749979,12.4999934 L31.2500029,12.4999934 C31.2155183,26.6930019 31.2614236,40.8860848 31.3877167,55.0785663 C45.7539957,40.9680737 60.0389111,26.7749808 74.2417526,12.4999934" id="Path" fill="url(#linearGradient-5)"></path>
    </g>
</svg>