<?xml version="1.0" encoding="UTF-8"?>
<svg width="75px" height="76px" viewBox="0 0 75 76" version="1.1" xmlns="http://www.w3.org/2000/svg" xmlns:xlink="http://www.w3.org/1999/xlink">
    <title>mask-icon</title>
    <defs>
        <path d="M0,0 L75,0 L75,75 L0,75 Z" id="path-1"></path>
    </defs>
    <g id="mask-icon" stroke="none" fill="none" transform="translate(0, 0.5)" xlink:href="#path-1" fill-rule="evenodd">
        <use fill="#FFFFFF" xlink:href="#path-1"></use>
        <path d="M37.5000018,41.8752261 C40.4610069,41.8752261 43.4220121,44.8362313 67.6637736,69.0779857 L61.7417526,74.999996 C59.1134557,72.3717097 56.4854093,69.7431553 53.8542055,67.1177653 C52.1550618,65.4223681 50.4546164,63.7282867 48.7498635,62.0385093 C47.8519664,61.1484933 46.9528804,60.2596696 46.0516108,59.3730508 C45.2704267,58.6045561 44.4875775,57.837723 43.7019484,57.0737827 C43.0298114,56.4202124 42.3556354,55.7687729 41.6779245,55.1209953 C41.1080191,54.5762605 40.5356194,54.0341222 39.9588983,53.4966123 C39.5048098,53.0734236 39.0480437,52.6530888 38.5867232,52.2377847 C38.2279305,51.9147531 37.8663615,51.5947766 37.5000018,51.2803704 C37.133642,51.5947766 36.772073,51.9147531 36.4132803,52.2377847 C35.9519599,52.6530888 35.4951938,53.0734236 35.0411052,53.4966123 C34.4643841,54.0341222 33.8919845,54.5762605 33.322079,55.1209953 C32.6443681,55.7687729 31.9701921,56.4202124 31.2980552,57.0737827 C30.5124261,57.837723 29.7295769,58.6045561 28.9483928,59.3730508 C28.0471231,60.2596696 27.1480371,61.1484933 26.25014,62.0385093 C24.5453872,63.7282867 22.8449417,65.4223681 21.145798,67.1177653 C18.5145942,69.7431553 15.8865478,72.3717097 13.2582509,74.999996 L10.3749979,74.999996 L10.3749979,66.0394611 C31.8350959,44.5847078 34.6675418,41.8752261 37.5000018,41.8752261 Z M69.0779892,7.33622643 L74.9999996,13.2582474 C72.3716991,15.8865443 69.7431588,18.5145907 67.1177688,21.1457945 C65.4223716,22.8449382 63.7282903,24.5453836 62.0385128,26.2501365 C61.1484968,27.1480336 60.2596731,28.0471196 59.3730543,28.9483892 C58.6045596,29.7295733 57.8377265,30.5124225 57.0737862,31.2980516 C56.4202159,31.9701886 55.7687765,32.6443646 55.1209988,33.3220755 C54.576264,33.8919809 54.0341257,34.4643806 53.4966158,35.0411017 C53.0734271,35.4951902 52.6530923,35.9519563 52.2377882,36.4132768 C51.9147566,36.7720695 51.5947801,37.1336385 51.2803739,37.4999982 C51.5947801,37.866358 51.9147566,38.227927 52.2377882,38.5867197 C52.6530923,39.0480401 53.0734271,39.5048062 53.4966158,39.9588948 C54.0341257,40.5356159 54.576264,41.1080155 55.1209988,41.677921 C55.7687765,42.3556319 56.4202159,43.0298079 57.0737862,43.7019448 C57.8377265,44.4875739 58.6045596,45.2704231 59.3730543,46.0516072 C60.2596731,46.9528769 61.1484968,47.8519629 62.0385128,48.74986 C63.7282903,50.4546128 65.4223716,52.1550583 67.1177688,53.854202 C69.7431588,56.4854058 72.3716991,59.1134522 74.9999996,61.7417491 L69.0779892,67.66377 C44.8362348,43.4220086 41.8752296,40.4610034 41.8752296,37.4999982 C41.8752296,34.5389931 44.8362348,31.5779879 69.0779892,7.33622643 Z M18.7500029,-6.61458373e-06 C18.7155183,14.1930019 18.7614236,28.3860848 18.8877167,42.5785663 C33.2539957,28.4680737 47.5389111,14.2749808 61.7417526,-6.61458373e-06 L67.6637736,5.92201079 C18.7500029,54.8357815 14.5625022,59.0232892 12.4687483,58.1560274 C10.3749979,57.288769 10.3749979,51.366741 10.3749979,-6.61458373e-06 L18.7500029,-6.61458373e-06 Z M4.40972295e-07,75.0000004 L8.37500183,75.0000004 L8.37500183,4.40972386e-07 L4.40972295e-07,4.40972386e-07 L4.40972295e-07,75.0000004 Z" id="Combined-Shape" fill="#000000"></path>
    </g>
</svg>