<?xml version="1.0" encoding="utf-8" standalone="no"?>
<!DOCTYPE svg PUBLIC "-//W3C//DTD SVG 1.1//EN" "http://www.w3.org/Graphics/SVG/1.1/DTD/svg11.dtd">
<svg version="1.1" width="612pt" height="792pt" viewBox="0 0 612 792" xmlns="http://www.w3.org/2000/svg">
  <defs />
  <g id="Layer_01">
    <path d="M412.2992,327.28323 L395.5124,310.4964 C326.79562,379.2132 318.40222,387.6066 318.40222,396 C318.40222,404.3934 326.79562,412.7868 395.5124,481.5036 L412.2992,464.71677 C404.8489,457.26648 397.39792,449.8169 389.95587,442.35837 C385.15002,437.5419 380.3479,432.72174 375.55798,427.88937 C373.0351,425.34415 370.5156,422.79556 368.00235,420.24078 C365.82394,418.0264 363.65024,415.8073 361.48474,413.58032 C359.6321,411.67505 357.7855,409.764 355.94928,407.84293 C354.40515,406.22745 352.86838,404.6049 351.34473,402.9701 C350.14514,401.68292 348.95364,400.38815 347.7764,399.08047 C346.86072,398.06342 345.9537,397.0385 345.06247,396 C345.9537,394.9615 346.86072,393.93658 347.7764,392.91953 C348.95364,391.61185 350.14514,390.31708 351.34473,389.0299 C352.86838,387.3951 354.40515,385.77255 355.94928,384.15707 C357.7855,382.236 359.6321,380.32495 361.48474,378.41968 C363.65024,376.1927 365.82394,373.9736 368.00235,371.75922 C370.5156,369.20444 373.0351,366.65585 375.55798,364.11063 C380.3479,359.27826 385.15002,354.4581 389.95587,349.64163 C397.39792,342.1831 404.8489,334.73352 412.2992,327.28323 z" stroke="#C80000" stroke-width="0.24" stroke-linecap="round" stroke-linejoin="round" fill="none" />
    <path d="M199.70079,502.2992 L223.44095,502.2992 L223.44095,289.7008 L199.70079,289.7008 z" stroke="#C80000" stroke-width="0.24" stroke-linecap="round" stroke-linejoin="round" fill="none" />
    <path d="M374.71677,502.2992 C367.26648,494.84894 359.8169,487.39792 352.35837,479.95587 C347.5419,475.15002 342.72174,470.3479 337.88937,465.55798 C335.34415,463.0351 332.79556,460.5156 330.24078,458.00235 C328.0264,455.82394 325.8073,453.65024 323.58032,451.48474 C321.67505,449.6321 319.764,447.7855 317.84293,445.94928 C316.22745,444.40515 314.6049,442.86838 312.9701,441.34473 C311.68292,440.14514 310.38815,438.95364 309.08047,437.7764 C308.06342,436.86072 307.0385,435.9537 306,435.06247 C304.9615,435.9537 303.93658,436.86072 302.91953,437.7764 C301.61185,438.95364 300.31708,440.14514 299.0299,441.34473 C297.3951,442.86838 295.77255,444.40515 294.15707,445.94928 C292.236,447.7855 290.32495,449.6321 288.41968,451.48474 C286.1927,453.65024 283.9736,455.82394 281.75922,458.00235 C279.20444,460.5156 276.65585,463.0351 274.11063,465.55798 C269.27826,470.3479 264.4581,475.15002 259.64163,479.95587 C252.1831,487.39792 244.73352,494.84894 237.28323,502.2992 L229.11023,502.2992 L229.11023,476.89926 C289.942,416.08264 297.97098,408.40222 306,408.40222 C314.3934,408.40222 322.7868,416.79562 391.5036,485.5124 z" stroke="#C80000" stroke-width="0.24" stroke-linecap="round" stroke-linejoin="round" fill="none" />
    <path d="M374.71677,289.7008 L391.5036,306.4876 C252.8504,445.1408 240.98032,457.0109 235.04527,454.55252 C229.11023,452.09415 229.11023,435.3073 229.11023,289.7008 L252.8504,289.7008 A10654.656,10654.656 0 0 0 253.24077,410.39594 A14870.701,14870.701 0 0 0 374.71677,289.70078" stroke="#C80000" stroke-width="0.24" stroke-linecap="round" stroke-linejoin="round" fill="none" />
  </g>
  <g id="Default">
    <path d="M164.26772,537.7323 L447.73227,537.7323 L447.73227,254.26773 L164.26772,254.26773 z" stroke="#000000" stroke-width="0.24" stroke-linecap="round" stroke-linejoin="round" fill="none" />
  </g>
</svg>