<svg xmlns="http://www.w3.org/2000/svg" viewBox="0 0 452 1186" width="452" height="1186"><defs><clipPath id="cp0"><rect x="16" y="38" width="420" height="92"/></clipPath><clipPath id="cp1"><rect x="16" y="168" width="420" height="92"/></clipPath><clipPath id="cp2"><rect x="16" y="298" width="420" height="92"/></clipPath><clipPath id="cp3"><rect x="16" y="428" width="420" height="92"/></clipPath><clipPath id="cp4"><rect x="16" y="558" width="420" height="92"/></clipPath><clipPath id="cp5"><rect x="16" y="688" width="420" height="92"/></clipPath><clipPath id="cp6"><rect x="16" y="818" width="420" height="92"/></clipPath><clipPath id="cp7"><rect x="16" y="948" width="420" height="92"/></clipPath><clipPath id="cp8"><rect x="16" y="1078" width="420" height="92"/></clipPath><clipPath id="ct9"><rect x="16" y="16" width="420" height="22"/></clipPath><clipPath id="irc10"><rect x="16" y="38" width="420" height="92" rx="0"/></clipPath><clipPath id="ct12"><rect x="16" y="146" width="420" height="22"/></clipPath><clipPath id="irc13"><rect x="16" y="168" width="420" height="92" rx="0"/></clipPath><clipPath id="ct15"><rect x="16" y="276" width="420" height="22"/></clipPath><clipPath id="irc16"><rect x="16" y="298" width="420" height="92" rx="0"/></clipPath><clipPath id="ct18"><rect x="16" y="406" width="420" height="22"/></clipPath><clipPath id="irc19"><rect x="16" y="428" width="420" height="92" rx="0"/></clipPath><clipPath id="ct21"><rect x="16" y="536" width="420" height="22"/></clipPath><clipPath id="irc22"><rect x="16" y="558" width="420" height="92" rx="0"/></clipPath><clipPath id="ct24"><rect x="16" y="666" width="420" height="22"/></clipPath><clipPath id="irc25"><rect x="16" y="688" width="420" height="92" rx="0"/></clipPath><clipPath id="ct27"><rect x="16" y="796" width="420" height="22"/></clipPath><clipPath id="irc28"><rect x="16" y="818" width="420" height="92" rx="0"/></clipPath><clipPath id="ct30"><rect x="16" y="926" width="420" height="22"/></clipPath><clipPath id="irc31"><rect x="16" y="948" width="420" height="92" rx="0"/></clipPath><clipPath id="ct33"><rect x="16" y="1056" width="420" height="22"/></clipPath><clipPath id="irc34"><rect x="16" y="1078" width="420" height="92" rx="0"/></clipPath></defs><rect x="0" y="0" width="452" height="1186" rx="0" fill="rgb(255,255,255)"/><text x="16" y="28" font-family="system-ui, &quot;-apple-system&quot;, sans-serif" font-size="12" font-weight="600" fill="rgb(110,110,115)">Label with an action</text><g clip-path="url(#cp0)"><g clip-path="url(#irc10)"><clipPath id="svgimg11vclip"><rect x="16" y="38" width="420" height="92"/></clipPath><g clip-path="url(#svgimg11vclip)"><g transform="translate(16 38)"><defs><clipPath id="svgimg11cp0"><rect x="29" y="26.5" width="120.6" height="31"/></clipPath><clipPath id="svgimg11ct1"><rect x="29" y="26.5" width="120.6" height="31"/></clipPath><clipPath id="svgimg11cp2"><rect x="361" y="33" width="18" height="18"/></clipPath></defs><rect x="28.5" y="20.5" width="315" height="43" rx="11.5" fill="none" stroke="rgba(0,0,0,0)" stroke-width="1"/><g clip-path="url(#svgimg11cp0)"><g clip-path="url(#svgimg11ct1)"><text x="37" y="46.5" font-family="system-ui, &quot;-apple-system&quot;, sans-serif" font-size="12" font-weight="650" fill="rgb(98,98,103)">TEAM MEMBERS</text></g></g><rect x="352.5" y="24.5" width="35" height="35" rx="11.5" fill="none" stroke="rgba(0,0,0,0)" stroke-width="1"/><g clip-path="url(#svgimg11cp2)"><g color="rgb(98, 98, 103)"><clipPath id="svgimg11svgic3"><rect x="361" y="33" width="18" height="18"/></clipPath><g clip-path="url(#svgimg11svgic3)"><g transform="matrix(.75 0 0 .75 361 33)"><path d="M5 12h14" style="marker:none;vector-effect:none;color-interpolation:srgb" fill="none" stroke="rgb(98, 98, 103)" stroke-width="2px" stroke-dasharray="none" stroke-linecap="round" stroke-linejoin="round" stroke-opacity="1" fill-opacity="1" opacity="1"/><path d="M12 5v14" style="marker:none;vector-effect:none;color-interpolation:srgb" fill="none" stroke="rgb(98, 98, 103)" stroke-width="2px" stroke-dasharray="none" stroke-linecap="round" stroke-linejoin="round" stroke-opacity="1" fill-opacity="1" opacity="1"/></g></g></g></g><g data-domotion-pseudo-source="blink-pseudo-fragment-v1" data-domotion-pseudo="::before" data-domotion-pseudo-owner="source-fragments"><g/></g></g></g></g></g><text x="16" y="158" font-family="system-ui, &quot;-apple-system&quot;, sans-serif" font-size="12" font-weight="600" fill="rgb(110,110,115)">Label with a count pill</text><g clip-path="url(#cp1)"><g clip-path="url(#irc13)"><clipPath id="svgimg14vclip"><rect x="16" y="168" width="420" height="92"/></clipPath><g clip-path="url(#svgimg14vclip)"><g transform="translate(16 168)"><defs><clipPath id="svgimg14cp0"><rect x="29" y="26.5" width="111" height="31"/></clipPath><clipPath id="svgimg14ct1"><rect x="29" y="26.5" width="111" height="31"/></clipPath><clipPath id="svgimg14ct2"><rect x="148" y="32" width="25.9" height="20"/></clipPath></defs><rect x="28.5" y="20.5" width="363" height="43" rx="11.5" fill="none" stroke="rgba(0,0,0,0)" stroke-width="1"/><g clip-path="url(#svgimg14cp0)"><g clip-path="url(#svgimg14ct1)"><text x="37" y="46.5" font-family="system-ui, &quot;-apple-system&quot;, sans-serif" font-size="12" font-weight="650" fill="rgb(98,98,103)">OPEN TICKETS</text></g></g><rect x="148" y="32" width="25.9" height="20" rx="10" fill="rgba(0,0,98,0.05)"/><rect x="148.5" y="32.5" width="25" height="19" rx="9.5" fill="none" stroke="rgba(0,0,0,0)" stroke-width="1"/><text x="154.64" y="46.5" font-family="system-ui, &quot;-apple-system&quot;, sans-serif" font-size="11" font-weight="650" fill="rgb(98,98,103)">12</text></g></g></g></g><text x="16" y="288" font-family="system-ui, &quot;-apple-system&quot;, sans-serif" font-size="12" font-weight="600" fill="rgb(110,110,115)">Label size xs</text><g clip-path="url(#cp2)"><g clip-path="url(#irc16)"><clipPath id="svgimg17vclip"><rect x="16" y="298" width="420" height="92"/></clipPath><g clip-path="url(#svgimg17vclip)"><g transform="translate(16 298)"><defs><clipPath id="svgimg17cp0"><rect x="29" y="27.5" width="105.2" height="29"/></clipPath><clipPath id="svgimg17ct1"><rect x="29" y="27.5" width="105.2" height="29"/></clipPath></defs><rect x="28.5" y="20.5" width="363" height="43" rx="11.5" fill="none" stroke="rgba(0,0,0,0)" stroke-width="1"/><g clip-path="url(#svgimg17cp0)"><g clip-path="url(#svgimg17ct1)"><text x="37" y="46.5" font-family="system-ui, &quot;-apple-system&quot;, sans-serif" font-size="11" font-weight="650" fill="rgb(98,98,103)">Team Members</text></g></g></g></g></g></g><text x="16" y="418" font-family="system-ui, &quot;-apple-system&quot;, sans-serif" font-size="12" font-weight="600" fill="rgb(110,110,115)">Label size m</text><g clip-path="url(#cp3)"><g clip-path="url(#irc19)"><clipPath id="svgimg20vclip"><rect x="16" y="428" width="420" height="92"/></clipPath><g clip-path="url(#svgimg20vclip)"><g transform="translate(16 428)"><defs><clipPath id="svgimg20cp0"><rect x="29" y="24.4" width="132.3" height="35.2"/></clipPath><clipPath id="svgimg20ct1"><rect x="29" y="24.4" width="132.3" height="35.2"/></clipPath></defs><rect x="28.5" y="20.5" width="363" height="43" rx="11.5" fill="none" stroke="rgba(0,0,0,0)" stroke-width="1"/><g clip-path="url(#svgimg20cp0)"><g clip-path="url(#svgimg20ct1)"><text x="37" y="47.41" font-family="&quot;ui-sans-serif&quot;, &quot;-apple-system&quot;, &quot;system-ui&quot;, &quot;Segoe UI&quot;, sans-serif" font-size="16" font-weight="600" fill="rgb(98,98,103)">Team members</text></g></g></g></g></g></g><text x="16" y="548" font-family="system-ui, &quot;-apple-system&quot;, sans-serif" font-size="12" font-weight="600" fill="rgb(110,110,115)">Label size l</text><g clip-path="url(#cp4)"><g clip-path="url(#irc22)"><clipPath id="svgimg23vclip"><rect x="16" y="558" width="420" height="92"/></clipPath><g clip-path="url(#svgimg23vclip)"><g transform="translate(16 558)"><defs><clipPath id="svgimg23cp0"><rect x="29" y="22" width="157.3" height="40"/></clipPath><clipPath id="svgimg23ct1"><rect x="29" y="22" width="157.3" height="40"/></clipPath></defs><rect x="28.5" y="20.5" width="363" height="43" rx="11.5" fill="none" stroke="rgba(0,0,0,0)" stroke-width="1"/><g clip-path="url(#svgimg23cp0)"><g clip-path="url(#svgimg23ct1)"><text x="37" y="49" font-family="&quot;ui-sans-serif&quot;, &quot;-apple-system&quot;, &quot;system-ui&quot;, &quot;Segoe UI&quot;, sans-serif" font-size="20" font-weight="600" fill="rgb(98,98,103)">Team members</text></g></g></g></g></g></g><text x="16" y="678" font-family="system-ui, &quot;-apple-system&quot;, sans-serif" font-size="12" font-weight="600" fill="rgb(110,110,115)">Label size xl</text><g clip-path="url(#cp5)"><g clip-path="url(#irc25)"><clipPath id="svgimg26vclip"><rect x="16" y="688" width="420" height="92"/></clipPath><g clip-path="url(#svgimg26vclip)"><g transform="translate(16 688)"><defs><clipPath id="svgimg26cp0"><rect x="29" y="21" width="189.7" height="46"/></clipPath><clipPath id="svgimg26ct1"><rect x="29" y="21" width="189.7" height="46"/></clipPath></defs><rect x="28.5" y="20.5" width="363" height="47" rx="11.5" fill="none" stroke="rgba(0,0,0,0)" stroke-width="1"/><g clip-path="url(#svgimg26cp0)"><g clip-path="url(#svgimg26ct1)"><text x="37" y="53" font-family="&quot;ui-sans-serif&quot;, &quot;-apple-system&quot;, &quot;system-ui&quot;, &quot;Segoe UI&quot;, sans-serif" font-size="25" font-weight="600" fill="rgb(98,98,103)">Team members</text></g></g></g></g></g></g><text x="16" y="808" font-family="system-ui, &quot;-apple-system&quot;, sans-serif" font-size="12" font-weight="600" fill="rgb(110,110,115)">Inline label with an action</text><g clip-path="url(#cp6)"><g clip-path="url(#irc28)"><clipPath id="svgimg29vclip"><rect x="16" y="818" width="420" height="92"/></clipPath><g clip-path="url(#svgimg29vclip)"><g transform="translate(16 818)"><defs><clipPath id="svgimg29cp0"><rect x="21" y="26.5" width="70.2" height="31"/></clipPath><clipPath id="svgimg29ct1"><rect x="21" y="26.5" width="70.2" height="31"/></clipPath><clipPath id="svgimg29cp2"><rect x="117" y="33" width="18.2" height="18"/></clipPath></defs><rect x="20.5" y="20.5" width="71" height="43" rx="11.5" fill="none" stroke="rgba(0,0,0,0)" stroke-width="1"/><g clip-path="url(#svgimg29cp0)"><g clip-path="url(#svgimg29ct1)"><text x="29" y="46.5" font-family="system-ui, &quot;-apple-system&quot;, sans-serif" font-size="12" font-weight="650" fill="rgb(98,98,103)">QUEUED</text></g></g><rect x="108.5" y="24.5" width="35" height="35" rx="11.5" fill="none" stroke="rgba(0,0,0,0)" stroke-width="1"/><g clip-path="url(#svgimg29cp2)"><g color="rgb(98, 98, 103)"><clipPath id="svgimg29svgic3"><rect x="117.2" y="33" width="18" height="18"/></clipPath><g clip-path="url(#svgimg29svgic3)"><g transform="matrix(.75 0 0 .75 117.188 33)"><path d="M5 12h14" style="marker:none;vector-effect:none;color-interpolation:srgb" fill="none" stroke="rgb(98, 98, 103)" stroke-width="2px" stroke-dasharray="none" stroke-linecap="round" stroke-linejoin="round" stroke-opacity="1" fill-opacity="1" opacity="1"/><path d="M12 5v14" style="marker:none;vector-effect:none;color-interpolation:srgb" fill="none" stroke="rgb(98, 98, 103)" stroke-width="2px" stroke-dasharray="none" stroke-linecap="round" stroke-linejoin="round" stroke-opacity="1" fill-opacity="1" opacity="1"/></g></g></g></g><g data-domotion-pseudo-source="blink-pseudo-fragment-v1" data-domotion-pseudo="::before" data-domotion-pseudo-owner="source-fragments"><g/></g></g></g></g></g><text x="16" y="938" font-family="system-ui, &quot;-apple-system&quot;, sans-serif" font-size="12" font-weight="600" fill="rgb(110,110,115)">Disclosure toggle, collapsed</text><g clip-path="url(#cp7)"><g clip-path="url(#irc31)"><clipPath id="svgimg32vclip"><rect x="16" y="948" width="420" height="92"/></clipPath><g clip-path="url(#svgimg32vclip)"><g transform="translate(16 948)"><defs><clipPath id="svgimg32cp0"><rect x="37" y="34.5" width="67.5" height="15"/></clipPath><clipPath id="svgimg32ct1"><rect x="37" y="34.5" width="67.5" height="15"/></clipPath><clipPath id="svgimg32cp2"><rect x="362" y="33" width="18" height="18"/></clipPath></defs><rect x="28.5" y="20.5" width="363" height="43" rx="11.5" fill="none" stroke="rgba(0,0,0,0)" stroke-width="1"/><g clip-path="url(#svgimg32cp0)"><g clip-path="url(#svgimg32ct1)"><text x="37" y="46.5" font-family="system-ui, &quot;-apple-system&quot;, sans-serif" font-size="12" font-weight="650" fill="rgb(98,98,103)">ARCHIVED</text></g></g><g clip-path="url(#svgimg32cp2)"><g color="rgb(98, 98, 103)"><clipPath id="svgimg32svgic3"><rect x="362" y="33" width="18" height="18"/></clipPath><g clip-path="url(#svgimg32svgic3)"><g transform="matrix(.75 0 0 .75 362 33)"><path d="m9 18 6-6-6-6" style="marker:none;vector-effect:none;color-interpolation:srgb" fill="none" stroke="rgb(98, 98, 103)" stroke-width="2px" stroke-dasharray="none" stroke-linecap="round" stroke-linejoin="round" stroke-opacity="1" fill-opacity="1" opacity="1"/></g></g></g></g></g></g></g></g><text x="16" y="1068" font-family="system-ui, &quot;-apple-system&quot;, sans-serif" font-size="12" font-weight="600" fill="rgb(110,110,115)">Disclosure toggle, expanded</text><g clip-path="url(#cp8)"><g clip-path="url(#irc34)"><clipPath id="svgimg35vclip"><rect x="16" y="1078" width="420" height="92"/></clipPath><g clip-path="url(#svgimg35vclip)"><g transform="translate(16 1078)"><defs><clipPath id="svgimg35cp0"><rect x="37" y="34.5" width="51.8" height="15"/></clipPath><clipPath id="svgimg35ct1"><rect x="37" y="34.5" width="51.8" height="15"/></clipPath><clipPath id="svgimg35ct2"><rect x="96.8" y="32" width="20.5" height="20"/></clipPath><clipPath id="svgimg35cp3"><rect x="362" y="33" width="18" height="18"/></clipPath></defs><rect x="28.5" y="20.5" width="363" height="43" rx="11.5" fill="none" stroke="rgba(0,0,0,0)" stroke-width="1"/><g clip-path="url(#svgimg35cp0)"><g clip-path="url(#svgimg35ct1)"><text x="37" y="46.5" font-family="system-ui, &quot;-apple-system&quot;, sans-serif" font-size="12" font-weight="650" fill="rgb(98,98,103)">RECENT</text></g></g><rect x="96.8" y="32" width="20.5" height="20" rx="10" fill="rgba(0,0,98,0.05)"/><rect x="97.5" y="32.5" width="19" height="19" rx="9.5" fill="none" stroke="rgba(0,0,0,0)" stroke-width="1"/><text x="103.44" y="46.5" font-family="system-ui, &quot;-apple-system&quot;, sans-serif" font-size="11" font-weight="650" fill="rgb(98,98,103)">5</text><g transform="rotate(90 371 42)"><g clip-path="url(#svgimg35cp3)"><g color="rgb(98, 98, 103)"><clipPath id="svgimg35svgic4"><rect x="362" y="33" width="18" height="18"/></clipPath><g clip-path="url(#svgimg35svgic4)"><g transform="matrix(.75 0 0 .75 362 33)"><path d="m9 18 6-6-6-6" style="marker:none;vector-effect:none;color-interpolation:srgb" fill="none" stroke="rgb(98, 98, 103)" stroke-width="2px" stroke-dasharray="none" stroke-linecap="round" stroke-linejoin="round" stroke-opacity="1" fill-opacity="1" opacity="1"/></g></g></g></g></g></g></g></g></g></svg>