<svg xmlns="http://www.w3.org/2000/svg" viewBox="0 0 592 786" width="592" height="786"><defs><clipPath id="cp0"><rect x="16" y="38" width="560" height="116"/></clipPath><clipPath id="cp1"><rect x="16" y="192" width="560" height="116"/></clipPath><clipPath id="cp2"><rect x="16" y="346" width="560" height="116"/></clipPath><clipPath id="cp3"><rect x="16" y="500" width="560" height="116"/></clipPath><clipPath id="cp4"><rect x="16" y="654" width="560" height="116"/></clipPath><clipPath id="ct5"><rect x="16" y="16" width="560" height="22"/></clipPath><clipPath id="irc6"><rect x="16" y="38" width="560" height="116" rx="0"/></clipPath><clipPath id="ct8"><rect x="16" y="170" width="560" height="22"/></clipPath><clipPath id="irc9"><rect x="16" y="192" width="560" height="116" rx="0"/></clipPath><clipPath id="ct11"><rect x="16" y="324" width="560" height="22"/></clipPath><clipPath id="irc12"><rect x="16" y="346" width="560" height="116" rx="0"/></clipPath><clipPath id="ct14"><rect x="16" y="478" width="560" height="22"/></clipPath><clipPath id="irc15"><rect x="16" y="500" width="560" height="116" rx="0"/></clipPath><clipPath id="ct17"><rect x="16" y="632" width="560" height="22"/></clipPath><clipPath id="irc18"><rect x="16" y="654" width="560" height="116" rx="0"/></clipPath></defs><rect x="0" y="0" width="592" height="786" rx="0" fill="rgb(28,28,30)"/><text x="16" y="28" font-family="system-ui, &quot;-apple-system&quot;, sans-serif" font-size="12" font-weight="600" fill="rgb(174,174,178)">Info</text><g clip-path="url(#cp0)"><g clip-path="url(#irc6)"><clipPath id="svgimg7vclip"><rect x="16" y="38" width="560" height="116"/></clipPath><g clip-path="url(#svgimg7vclip)"><g transform="translate(16 38)"><defs><clipPath id="svgimg7cp0"><rect x="37" y="35" width="16" height="16.4"/></clipPath><clipPath id="svgimg7ct2"><rect x="61" y="29" width="116.7" height="15"/></clipPath><clipPath id="svgimg7cp3"><rect x="61" y="44.8" width="368.6" height="13"/></clipPath><clipPath id="svgimg7ct4"><rect x="61" y="44.8" width="368.6" height="13"/></clipPath><clipPath id="svgimg7ct5"><rect x="437.6" y="29" width="65.4" height="28.8"/></clipPath></defs><rect x="28" y="20" width="484" height="46.8" rx="12" fill="rgb(34,43,48)"/><rect x="28.5" y="20.5" width="483" height="46" rx="11.5" fill="none" stroke="rgb(53,92,109)" stroke-width="1"/><g clip-path="url(#svgimg7cp0)"><g color="rgb(138, 203, 255)"><clipPath id="svgimg7svgic1"><rect x="37" y="35.4" width="16" height="16"/></clipPath><g clip-path="url(#svgimg7svgic1)"><g transform="translate(37 35.39)scale(.66667)"><circle cx="12" cy="12" r="10" style="marker:none;vector-effect:none;color-interpolation:srgb" fill="none" stroke="rgb(138, 203, 255)" stroke-width="2px" stroke-dasharray="none" stroke-linecap="round" stroke-linejoin="round" stroke-opacity="1" fill-opacity="1" opacity="1"/><line x1="12" x2="12" y1="8" y2="12" style="marker:none;vector-effect:none;color-interpolation:srgb" fill="none" stroke="rgb(138, 203, 255)" stroke-width="2px" stroke-dasharray="none" stroke-linecap="round" stroke-linejoin="round" stroke-opacity="1" fill-opacity="1" opacity="1"/><line x1="12" x2="12.01" y1="16" y2="16" style="marker:none;vector-effect:none;color-interpolation:srgb" fill="none" stroke="rgb(138, 203, 255)" stroke-width="2px" stroke-dasharray="none" stroke-linecap="round" stroke-linejoin="round" stroke-opacity="1" fill-opacity="1" opacity="1"/></g></g></g></g><text x="61" y="41" font-family="system-ui, &quot;-apple-system&quot;, sans-serif" font-size="12" font-weight="700" fill="rgb(138,203,255)">Draft not published</text><g opacity="0.78" clip-path="url(#svgimg7cp3)" style="isolation:isolate"><g clip-path="url(#svgimg7ct4)"><text x="61" y="55.8" font-family="system-ui, &quot;-apple-system&quot;, sans-serif" font-size="11" fill="rgb(138,203,255)">Changes are saved but only visible to your team.</text></g></g><rect x="437.6" y="29" width="65.4" height="28.8" rx="14.4" fill="rgba(28,28,30,0.52)"/><rect x="438.5" y="29.5" width="64" height="28" rx="13.9" fill="none" stroke="rgb(138,203,255)" stroke-width="1"/><text x="449.83" y="47.89" font-family="system-ui, &quot;-apple-system&quot;, sans-serif" font-size="11" font-weight="650" fill="rgb(138,203,255)">Publish</text></g></g></g></g><text x="16" y="182" font-family="system-ui, &quot;-apple-system&quot;, sans-serif" font-size="12" font-weight="600" fill="rgb(174,174,178)">Info with badge</text><g clip-path="url(#cp1)"><g clip-path="url(#irc9)"><clipPath id="svgimg10vclip"><rect x="16" y="192" width="560" height="116"/></clipPath><g clip-path="url(#svgimg10vclip)"><g transform="translate(16 192)"><defs><clipPath id="svgimg10cp0"><rect x="37" y="35" width="16" height="16.4"/></clipPath><clipPath id="svgimg10ct2"><rect x="61" y="37.4" width="137.6" height="15"/></clipPath><clipPath id="svgimg10ct3"><rect x="199.4" y="34.4" width="229.8" height="18"/></clipPath><clipPath id="svgimg10ct4"><rect x="437.3" y="29" width="65.7" height="28.8"/></clipPath></defs><rect x="28" y="20" width="484" height="46.8" rx="12" fill="rgb(34,43,48)"/><rect x="28.5" y="20.5" width="483" height="46" rx="11.5" fill="none" stroke="rgb(53,92,109)" stroke-width="1"/><g clip-path="url(#svgimg10cp0)"><g color="rgb(138, 203, 255)"><clipPath id="svgimg10svgic1"><rect x="37" y="35.4" width="16" height="16"/></clipPath><g clip-path="url(#svgimg10svgic1)"><g transform="translate(37 35.39)scale(.66667)"><circle cx="12" cy="12" r="10" style="marker:none;vector-effect:none;color-interpolation:srgb" fill="none" stroke="rgb(138, 203, 255)" stroke-width="2px" stroke-dasharray="none" stroke-linecap="round" stroke-linejoin="round" stroke-opacity="1" fill-opacity="1" opacity="1"/><line x1="12" x2="12" y1="8" y2="12" style="marker:none;vector-effect:none;color-interpolation:srgb" fill="none" stroke="rgb(138, 203, 255)" stroke-width="2px" stroke-dasharray="none" stroke-linecap="round" stroke-linejoin="round" stroke-opacity="1" fill-opacity="1" opacity="1"/><line x1="12" x2="12.01" y1="16" y2="16" style="marker:none;vector-effect:none;color-interpolation:srgb" fill="none" stroke="rgb(138, 203, 255)" stroke-width="2px" stroke-dasharray="none" stroke-linecap="round" stroke-linejoin="round" stroke-opacity="1" fill-opacity="1" opacity="1"/></g></g></g></g><text x="61" y="49.39" font-family="system-ui, &quot;-apple-system&quot;, sans-serif" font-size="12" font-weight="700" fill="rgb(138,203,255)">Unanswered questions</text><text x="199.44" y="49.39" font-family="system-ui, &quot;-apple-system&quot;, sans-serif" font-size="16" fill="rgb(138,203,255)">1</text><rect x="437.3" y="29" width="65.7" height="28.8" rx="14.4" fill="rgba(28,28,30,0.52)"/><rect x="437.5" y="29.5" width="65" height="28" rx="13.9" fill="none" stroke="rgb(138,203,255)" stroke-width="1"/><text x="449.47" y="47.89" font-family="system-ui, &quot;-apple-system&quot;, sans-serif" font-size="11" font-weight="650" fill="rgb(138,203,255)">Answer</text></g></g></g></g><text x="16" y="336" font-family="system-ui, &quot;-apple-system&quot;, sans-serif" font-size="12" font-weight="600" fill="rgb(174,174,178)">Success</text><g clip-path="url(#cp2)"><g clip-path="url(#irc12)"><clipPath id="svgimg13vclip"><rect x="16" y="346" width="560" height="116"/></clipPath><g clip-path="url(#svgimg13vclip)"><g transform="translate(16 346)"><defs><clipPath id="svgimg13cp0"><rect x="37" y="35" width="16" height="16.4"/></clipPath><clipPath id="svgimg13ct2"><rect x="61" y="29" width="132.1" height="15"/></clipPath><clipPath id="svgimg13cp3"><rect x="61" y="44.8" width="434" height="13"/></clipPath><clipPath id="svgimg13ct4"><rect x="61" y="44.8" width="434" height="13"/></clipPath></defs><rect x="28" y="20" width="484" height="46.8" rx="12" fill="rgb(31,52,38)"/><rect x="28.5" y="20.5" width="483" height="46" rx="11.5" fill="none" stroke="rgb(40,113,59)" stroke-width="1"/><g clip-path="url(#svgimg13cp0)"><g color="rgb(99, 230, 133)"><clipPath id="svgimg13svgic1"><rect x="37" y="35.4" width="16" height="16"/></clipPath><g clip-path="url(#svgimg13svgic1)"><g transform="translate(37 35.39)scale(.66667)"><circle cx="12" cy="12" r="10" style="marker:none;vector-effect:none;color-interpolation:srgb" fill="none" stroke="rgb(99, 230, 133)" stroke-width="2px" stroke-dasharray="none" stroke-linecap="round" stroke-linejoin="round" stroke-opacity="1" fill-opacity="1" opacity="1"/><path d="m16 9-5.5 5.5L8 12" style="marker:none;vector-effect:none;color-interpolation:srgb" fill="none" stroke="rgb(99, 230, 133)" stroke-width="2px" stroke-dasharray="none" stroke-linecap="round" stroke-linejoin="round" stroke-opacity="1" fill-opacity="1" opacity="1"/></g></g></g></g><text x="61" y="41" font-family="system-ui, &quot;-apple-system&quot;, sans-serif" font-size="12" font-weight="700" fill="rgb(99,230,133)">Deployment complete</text><g opacity="0.78" clip-path="url(#svgimg13cp3)" style="isolation:isolate"><g clip-path="url(#svgimg13ct4)"><text x="61" y="55.8" font-family="system-ui, &quot;-apple-system&quot;, sans-serif" font-size="11" fill="rgb(99,230,133)">production.example.com is serving the new build.</text></g></g></g></g></g></g><text x="16" y="490" font-family="system-ui, &quot;-apple-system&quot;, sans-serif" font-size="12" font-weight="600" fill="rgb(174,174,178)">Warning</text><g clip-path="url(#cp3)"><g clip-path="url(#irc15)"><clipPath id="svgimg16vclip"><rect x="16" y="500" width="560" height="116"/></clipPath><g clip-path="url(#svgimg16vclip)"><g transform="translate(16 500)"><defs><clipPath id="svgimg16cp0"><rect x="37" y="35" width="16" height="16.4"/></clipPath><clipPath id="svgimg16ct2"><rect x="61" y="29" width="166.1" height="15"/></clipPath><clipPath id="svgimg16cp3"><rect x="61" y="44.8" width="362.1" height="13"/></clipPath><clipPath id="svgimg16ct4"><rect x="61" y="44.8" width="362.1" height="13"/></clipPath><clipPath id="svgimg16ct5"><rect x="431.1" y="29" width="71.9" height="28.8"/></clipPath></defs><rect x="28" y="20" width="484" height="46.8" rx="12" fill="rgb(48,44,27)"/><rect x="28.5" y="20.5" width="483" height="46" rx="11.5" fill="none" stroke="rgb(251,221,104)" stroke-width="1"/><g clip-path="url(#svgimg16cp0)"><g color="rgb(255, 216, 74)"><clipPath id="svgimg16svgic1"><rect x="37" y="35.4" width="16" height="16"/></clipPath><g clip-path="url(#svgimg16svgic1)"><g transform="translate(37 35.39)scale(.66667)"><path d="m21.7 18-8-14a2 2 0 0 0-3.4 0l-8 14A2 2 0 0 0 4 21h16a2 2 0 0 0 1.7-3" style="marker:none;vector-effect:none;color-interpolation:srgb" fill="none" stroke="rgb(255, 216, 74)" stroke-width="2px" stroke-dasharray="none" stroke-linecap="round" stroke-linejoin="round" stroke-opacity="1" fill-opacity="1" opacity="1"/><path d="M12 9v4" style="marker:none;vector-effect:none;color-interpolation:srgb" fill="none" stroke="rgb(255, 216, 74)" stroke-width="2px" stroke-dasharray="none" stroke-linecap="round" stroke-linejoin="round" stroke-opacity="1" fill-opacity="1" opacity="1"/><path d="M12 17z" style="marker:none;vector-effect:none;color-interpolation:srgb" fill="none" stroke="rgb(255, 216, 74)" stroke-width="2px" stroke-dasharray="none" stroke-linecap="round" stroke-linejoin="round" stroke-opacity="1" fill-opacity="1" opacity="1"/></g></g></g></g><text x="61" y="41" font-family="system-ui, &quot;-apple-system&quot;, sans-serif" font-size="12" font-weight="700" fill="rgb(255,216,74)">Approaching your plan limit</text><g opacity="0.78" clip-path="url(#svgimg16cp3)" style="isolation:isolate"><g clip-path="url(#svgimg16ct4)"><text x="61" y="55.8" font-family="system-ui, &quot;-apple-system&quot;, sans-serif" font-size="11" fill="rgb(255,216,74)">You have used 92% of this month’s build minutes.</text></g></g><rect x="431.1" y="29" width="71.9" height="28.8" rx="14.4" fill="rgba(28,28,30,0.52)"/><rect x="431.5" y="29.5" width="71" height="28" rx="13.9" fill="none" stroke="rgb(255,216,74)" stroke-width="1"/><text x="443.28" y="47.89" font-family="system-ui, &quot;-apple-system&quot;, sans-serif" font-size="11" font-weight="650" fill="rgb(255,216,74)">Upgrade</text></g></g></g></g><text x="16" y="644" font-family="system-ui, &quot;-apple-system&quot;, sans-serif" font-size="12" font-weight="600" fill="rgb(174,174,178)">Danger (alert)</text><g clip-path="url(#cp4)"><g clip-path="url(#irc18)"><clipPath id="svgimg19vclip"><rect x="16" y="654" width="560" height="116"/></clipPath><g clip-path="url(#svgimg19vclip)"><g transform="translate(16 654)"><defs><clipPath id="svgimg19cp0"><rect x="37" y="35" width="16" height="16.4"/></clipPath><clipPath id="svgimg19ct2"><rect x="61" y="29" width="67.5" height="15"/></clipPath><clipPath id="svgimg19cp3"><rect x="61" y="44.8" width="362.7" height="13"/></clipPath><clipPath id="svgimg19ct4"><rect x="61" y="44.8" width="362.7" height="13"/></clipPath><clipPath id="svgimg19ct5"><rect x="431.7" y="29" width="71.3" height="28.8"/></clipPath></defs><rect x="28" y="20" width="484" height="46.8" rx="12" fill="rgb(44,30,32)"/><rect x="28.5" y="20.5" width="483" height="46" rx="11.5" fill="none" stroke="rgb(101,37,40)" stroke-width="1"/><g clip-path="url(#svgimg19cp0)"><g color="rgb(194, 11, 32)"><clipPath id="svgimg19svgic1"><rect x="37" y="35.4" width="16" height="16"/></clipPath><g clip-path="url(#svgimg19svgic1)"><g transform="translate(37 35.39)scale(.66667)"><circle cx="12" cy="12" r="10" style="marker:none;vector-effect:none;color-interpolation:srgb" fill="none" stroke="rgb(194, 11, 32)" stroke-width="2px" stroke-dasharray="none" stroke-linecap="round" stroke-linejoin="round" stroke-opacity="1" fill-opacity="1" opacity="1"/><line x1="12" x2="12" y1="8" y2="12" style="marker:none;vector-effect:none;color-interpolation:srgb" fill="none" stroke="rgb(194, 11, 32)" stroke-width="2px" stroke-dasharray="none" stroke-linecap="round" stroke-linejoin="round" stroke-opacity="1" fill-opacity="1" opacity="1"/><line x1="12" x2="12.01" y1="16" y2="16" style="marker:none;vector-effect:none;color-interpolation:srgb" fill="none" stroke="rgb(194, 11, 32)" stroke-width="2px" stroke-dasharray="none" stroke-linecap="round" stroke-linejoin="round" stroke-opacity="1" fill-opacity="1" opacity="1"/></g></g></g></g><text x="61" y="41" font-family="system-ui, &quot;-apple-system&quot;, sans-serif" font-size="12" font-weight="700" fill="rgb(194,11,32)">Build failed</text><g opacity="0.78" clip-path="url(#svgimg19cp3)" style="isolation:isolate"><g clip-path="url(#svgimg19ct4)"><text x="61" y="55.8" font-family="system-ui, &quot;-apple-system&quot;, sans-serif" font-size="11" fill="rgb(194,11,32)">Step “test” exited with code 1.</text></g></g><rect x="431.7" y="29" width="71.3" height="28.8" rx="14.4" fill="rgba(28,28,30,0.52)"/><rect x="432.5" y="29.5" width="70" height="28" rx="13.9" fill="none" stroke="rgb(194,11,32)" stroke-width="1"/><text x="443.88" y="47.89" font-family="system-ui, &quot;-apple-system&quot;, sans-serif" font-size="11" font-weight="650" fill="rgb(194,11,32)">View log</text></g></g></g></g></svg>