<svg xmlns="http://www.w3.org/2000/svg" viewBox="0 0 392 358" width="392" height="358"><defs><clipPath id="cp0"><rect x="16" y="38" width="360" height="80"/></clipPath><clipPath id="cp1"><rect x="16" y="156" width="360" height="76"/></clipPath><clipPath id="cp2"><rect x="16" y="270" width="360" height="72"/></clipPath><clipPath id="ct3"><rect x="16" y="16" width="360" height="22"/></clipPath><clipPath id="irc4"><rect x="16" y="38" width="360" height="80" rx="0"/></clipPath><clipPath id="ct6"><rect x="16" y="134" width="360" height="22"/></clipPath><clipPath id="irc7"><rect x="16" y="156" width="360" height="76" rx="0"/></clipPath><clipPath id="ct9"><rect x="16" y="248" width="360" height="22"/></clipPath><clipPath id="irc10"><rect x="16" y="270" width="360" height="72" rx="0"/></clipPath></defs><rect x="0" y="0" width="392" height="358" rx="0" fill="rgb(28,28,30)"/><text x="16" y="28" font-family="system-ui, &quot;-apple-system&quot;, sans-serif" font-size="12" font-weight="600" fill="rgb(174,174,178)">Large (title)</text><g clip-path="url(#cp0)"><g clip-path="url(#irc4)"><clipPath id="svgimg5vclip"><rect x="16" y="38" width="360" height="80"/></clipPath><g clip-path="url(#svgimg5vclip)"><g transform="translate(16 38)"><defs><clipPath id="svgimg5cp0"><rect x="20" y="20" width="163" height="40"/></clipPath><clipPath id="svgimg5ov1"><rect x="20" y="20" width="163" height="40" rx="0"/></clipPath><clipPath id="svgimg5cp2"><rect x="28" y="30.4" width="147" height="19.2"/></clipPath><clipPath id="svgimg5ct3"><rect x="28" y="30.4" width="147" height="19.2"/></clipPath></defs><g clip-path="url(#svgimg5cp0)"><g clip-path="url(#svgimg5ov1)"><g clip-path="url(#svgimg5cp2)"><g clip-path="url(#svgimg5ct3)"><text x="28" y="45.41" font-family="system-ui, &quot;-apple-system&quot;, sans-serif" font-size="16" font-weight="650" fill="rgb(174,174,178)">Northstar migration</text></g></g></g></g></g></g></g></g><text x="16" y="146" font-family="system-ui, &quot;-apple-system&quot;, sans-serif" font-size="12" font-weight="600" fill="rgb(174,174,178)">Default</text><g clip-path="url(#cp1)"><g clip-path="url(#irc7)"><clipPath id="svgimg8vclip"><rect x="16" y="156" width="360" height="76"/></clipPath><g clip-path="url(#svgimg8vclip)"><g transform="translate(16 156)"><defs><clipPath id="svgimg8cp0"><rect x="20" y="20" width="151.2" height="40"/></clipPath><clipPath id="svgimg8ov1"><rect x="20" y="20" width="151.2" height="40" rx="0"/></clipPath><clipPath id="svgimg8cp2"><rect x="28" y="31.6" width="135.2" height="16.8"/></clipPath><clipPath id="svgimg8ct3"><rect x="28" y="31.6" width="135.2" height="16.8"/></clipPath></defs><g clip-path="url(#svgimg8cp0)"><g clip-path="url(#svgimg8ov1)"><g clip-path="url(#svgimg8cp2)"><g clip-path="url(#svgimg8ct3)"><text x="28" y="44.59" font-family="system-ui, &quot;-apple-system&quot;, sans-serif" font-size="14" font-weight="650" fill="rgb(174,174,178)">Workspace settings</text></g></g></g></g></g></g></g></g><text x="16" y="260" font-family="system-ui, &quot;-apple-system&quot;, sans-serif" font-size="12" font-weight="600" fill="rgb(174,174,178)">Small (label)</text><g clip-path="url(#cp2)"><g clip-path="url(#irc10)"><clipPath id="svgimg11vclip"><rect x="16" y="270" width="360" height="72"/></clipPath><g clip-path="url(#svgimg11vclip)"><g transform="translate(16 270)"><defs><clipPath id="svgimg11cp0"><rect x="20" y="20" width="53.6" height="40"/></clipPath><clipPath id="svgimg11ov1"><rect x="20" y="20" width="53.6" height="40" rx="0"/></clipPath><clipPath id="svgimg11cp2"><rect x="28" y="32.8" width="37.6" height="14.4"/></clipPath><clipPath id="svgimg11ct3"><rect x="28" y="32.8" width="37.6" height="14.4"/></clipPath></defs><g clip-path="url(#svgimg11cp0)"><g clip-path="url(#svgimg11ov1)"><g clip-path="url(#svgimg11cp2)"><g clip-path="url(#svgimg11ct3)"><text x="28" y="43.8" font-family="system-ui, &quot;-apple-system&quot;, sans-serif" font-size="12" font-weight="650" fill="rgb(174,174,178)">Filters</text></g></g></g></g></g></g></g></g></svg>